<mxfile host="app.diagrams.net" agent="Mozilla/5.0 (Macintosh; Intel Mac OS X 10_15_7) AppleWebKit/605.1.15 (KHTML, like Gecko) Version/18.0.1 Safari/605.1.15" version="24.7.17">
  <diagram name="Page-1" id="nAaoERNEGEflX4ynO5Wu">
    <mxGraphModel dx="1242" dy="855" grid="1" gridSize="10" guides="1" tooltips="1" connect="1" arrows="1" fold="1" page="1" pageScale="1" pageWidth="850" pageHeight="1100" math="0" shadow="0">
      <root>
        <mxCell id="0" />
        <mxCell id="1" parent="0" />
        <mxCell id="9HvHPpwTd5oeUDq3rVVy-8" style="edgeStyle=orthogonalEdgeStyle;rounded=0;orthogonalLoop=1;jettySize=auto;html=1;entryX=0.5;entryY=0;entryDx=0;entryDy=0;" edge="1" parent="1" source="9HvHPpwTd5oeUDq3rVVy-1" target="9HvHPpwTd5oeUDq3rVVy-2">
          <mxGeometry relative="1" as="geometry" />
        </mxCell>
        <mxCell id="9HvHPpwTd5oeUDq3rVVy-1" value="Start" style="strokeWidth=2;html=1;shape=mxgraph.flowchart.start_1;whiteSpace=wrap;" vertex="1" parent="1">
          <mxGeometry x="350" y="30" width="100" height="60" as="geometry" />
        </mxCell>
        <mxCell id="9HvHPpwTd5oeUDq3rVVy-9" style="edgeStyle=orthogonalEdgeStyle;rounded=0;orthogonalLoop=1;jettySize=auto;html=1;exitX=0.5;exitY=1;exitDx=0;exitDy=0;" edge="1" parent="1" source="9HvHPpwTd5oeUDq3rVVy-2" target="9HvHPpwTd5oeUDq3rVVy-3">
          <mxGeometry relative="1" as="geometry" />
        </mxCell>
        <mxCell id="9HvHPpwTd5oeUDq3rVVy-2" value="User log in to account" style="rounded=1;whiteSpace=wrap;html=1;absoluteArcSize=1;arcSize=14;strokeWidth=2;" vertex="1" parent="1">
          <mxGeometry x="320" y="130" width="160" height="30" as="geometry" />
        </mxCell>
        <mxCell id="9HvHPpwTd5oeUDq3rVVy-10" style="edgeStyle=orthogonalEdgeStyle;rounded=0;orthogonalLoop=1;jettySize=auto;html=1;exitX=0.5;exitY=1;exitDx=0;exitDy=0;entryX=0.5;entryY=0;entryDx=0;entryDy=0;" edge="1" parent="1" source="9HvHPpwTd5oeUDq3rVVy-3" target="9HvHPpwTd5oeUDq3rVVy-4">
          <mxGeometry relative="1" as="geometry" />
        </mxCell>
        <mxCell id="9HvHPpwTd5oeUDq3rVVy-3" value="Select the product that the user wants to subscribe" style="rounded=1;whiteSpace=wrap;html=1;absoluteArcSize=1;arcSize=14;strokeWidth=2;" vertex="1" parent="1">
          <mxGeometry x="320" y="200" width="160" height="40" as="geometry" />
        </mxCell>
        <mxCell id="9HvHPpwTd5oeUDq3rVVy-11" style="edgeStyle=orthogonalEdgeStyle;rounded=0;orthogonalLoop=1;jettySize=auto;html=1;exitX=0.5;exitY=1;exitDx=0;exitDy=0;entryX=0.5;entryY=0;entryDx=0;entryDy=0;" edge="1" parent="1" source="9HvHPpwTd5oeUDq3rVVy-4" target="9HvHPpwTd5oeUDq3rVVy-5">
          <mxGeometry relative="1" as="geometry" />
        </mxCell>
        <mxCell id="9HvHPpwTd5oeUDq3rVVy-4" value="Subscribe to the product" style="rounded=1;whiteSpace=wrap;html=1;absoluteArcSize=1;arcSize=14;strokeWidth=2;" vertex="1" parent="1">
          <mxGeometry x="320" y="280" width="160" height="30" as="geometry" />
        </mxCell>
        <mxCell id="9HvHPpwTd5oeUDq3rVVy-12" style="edgeStyle=orthogonalEdgeStyle;rounded=0;orthogonalLoop=1;jettySize=auto;html=1;exitX=0.5;exitY=1;exitDx=0;exitDy=0;entryX=0.5;entryY=0;entryDx=0;entryDy=0;" edge="1" parent="1" source="9HvHPpwTd5oeUDq3rVVy-5" target="9HvHPpwTd5oeUDq3rVVy-6">
          <mxGeometry relative="1" as="geometry" />
        </mxCell>
        <mxCell id="9HvHPpwTd5oeUDq3rVVy-5" value="Receive notification when the price drops" style="rounded=1;whiteSpace=wrap;html=1;absoluteArcSize=1;arcSize=14;strokeWidth=2;" vertex="1" parent="1">
          <mxGeometry x="320" y="350" width="160" height="40" as="geometry" />
        </mxCell>
        <mxCell id="9HvHPpwTd5oeUDq3rVVy-13" style="edgeStyle=orthogonalEdgeStyle;rounded=0;orthogonalLoop=1;jettySize=auto;html=1;exitX=0.5;exitY=1;exitDx=0;exitDy=0;" edge="1" parent="1" source="9HvHPpwTd5oeUDq3rVVy-6" target="9HvHPpwTd5oeUDq3rVVy-7">
          <mxGeometry relative="1" as="geometry" />
        </mxCell>
        <mxCell id="9HvHPpwTd5oeUDq3rVVy-6" value="Click on the notification to view the new product&#39;s price" style="rounded=1;whiteSpace=wrap;html=1;absoluteArcSize=1;arcSize=14;strokeWidth=2;" vertex="1" parent="1">
          <mxGeometry x="320" y="430" width="160" height="40" as="geometry" />
        </mxCell>
        <mxCell id="9HvHPpwTd5oeUDq3rVVy-7" value="End" style="strokeWidth=2;html=1;shape=mxgraph.flowchart.terminator;whiteSpace=wrap;" vertex="1" parent="1">
          <mxGeometry x="350" y="510" width="100" height="60" as="geometry" />
        </mxCell>
      </root>
    </mxGraphModel>
  </diagram>
</mxfile>
